HIERARCHY
ROOT Hips
{
	OFFSET 0.000000 89.005402 0.000000
	CHANNELS 6 Xposition Yposition Zposition Xrotation Yrotation Zrotation
	JOINT Spine
	{
		OFFSET 0.116900 10.681000 0.373400
		CHANNELS 3 Xrotation Yrotation Zrotation
		JOINT Spine1
		{
			OFFSET 0.000000 13.840401 0.053500
			CHANNELS 3 Xrotation Yrotation Zrotation
			JOINT Spine2
			{
				OFFSET 0.000000 14.712700 -0.366200
				CHANNELS 3 Xrotation Yrotation Zrotation
				JOINT Neck
				{
					OFFSET 0.000000 35.415497 -3.314200
					CHANNELS 3 Xrotation Yrotation Zrotation
					JOINT Head
					{
						OFFSET 0.000000 16.899200 1.218300
						CHANNELS 3 Xrotation Yrotation Zrotation
						JOINT HeadTop_End
						{
							OFFSET 0.000000 22.206207 2.192500
							CHANNELS 3 Xrotation Yrotation Zrotation
							End Site
							{
								OFFSET 0.000000 22.314178 0.000000
							}
						}
					}
				}
				JOINT LeftShoulder
				{
					OFFSET 12.896400 26.716293 -4.548400
					CHANNELS 3 Xrotation Yrotation Zrotation
					JOINT LeftArm
					{
						OFFSET 19.027000 -4.857010 -1.718400
						CHANNELS 3 Xrotation Yrotation Zrotation
						JOINT LeftForeArm
						{
							OFFSET 24.179897 0.000000 0.000000
							CHANNELS 3 Xrotation Yrotation Zrotation
							JOINT LeftHand
							{
								OFFSET 27.156403 0.000000 0.000000
								CHANNELS 3 Xrotation Yrotation Zrotation
								JOINT LeftHandIndex1
								{
									OFFSET 16.441200 0.000000 0.000000
									CHANNELS 3 Xrotation Yrotation Zrotation
									JOINT LeftHandIndex2
									{
										OFFSET 4.821899 0.000000 0.000000
										CHANNELS 3 Xrotation Yrotation Zrotation
										JOINT LeftHandIndex3
										{
											OFFSET 6.386497 0.000000 0.000000
											CHANNELS 3 Xrotation Yrotation Zrotation
											JOINT LeftHandIndex4
											{
												OFFSET 5.188988 0.000000 0.000000
												CHANNELS 3 Xrotation Yrotation Zrotation
												End Site
												{
													OFFSET -0.178703 5.185913 0.000177
												}
											}
										}
									}
								}
								JOINT LeftHandThumb1
								{
									OFFSET 6.534897 -5.032593 5.900300
									CHANNELS 3 Xrotation Yrotation Zrotation
									JOINT LeftHandThumb2
									{
										OFFSET 3.818176 -2.204422 2.204423
										CHANNELS 3 Xrotation Yrotation Zrotation
										JOINT LeftHandThumb3
										{
											OFFSET 3.252098 -1.877594 1.877601
											CHANNELS 3 Xrotation Yrotation Zrotation
											JOINT LeftHandThumb4
											{
												OFFSET 5.251778 -3.032120 3.032117
												CHANNELS 3 Xrotation Yrotation Zrotation
												End Site
												{
													OFFSET 0.000023 6.780014 0.000000
												}
											}
										}
									}
								}
							}
						}
					}
				}
				JOINT RightShoulder
				{
					OFFSET -12.896300 26.716293 -4.548400
					CHANNELS 3 Xrotation Yrotation Zrotation
					JOINT RightArm
					{
						OFFSET -19.027000 -4.857010 -1.718400
						CHANNELS 3 Xrotation Yrotation Zrotation
						JOINT RightForeArm
						{
							OFFSET -24.179897 0.000000 0.000000
							CHANNELS 3 Xrotation Yrotation Zrotation
							JOINT RightHand
							{
								OFFSET -27.156403 0.000000 0.000000
								CHANNELS 3 Xrotation Yrotation Zrotation
								JOINT RightHandThumb1
								{
									OFFSET -6.591202 -4.852203 5.988100
									CHANNELS 3 Xrotation Yrotation Zrotation
									JOINT RightHandThumb2
									{
										OFFSET -3.818176 -2.204422 2.204423
										CHANNELS 3 Xrotation Yrotation Zrotation
										JOINT RightHandThumb3
										{
											OFFSET -3.252098 -1.877594 1.877601
											CHANNELS 3 Xrotation Yrotation Zrotation
											JOINT RightHandThumb4
											{
												OFFSET -5.251778 -3.032120 3.032117
												CHANNELS 3 Xrotation Yrotation Zrotation
												End Site
												{
													OFFSET -0.000023 6.780014 0.000000
												}
											}
										}
									}
								}
								JOINT RightHandIndex1
								{
									OFFSET -16.029404 0.000000 0.000000
									CHANNELS 3 Xrotation Yrotation Zrotation
									JOINT RightHandIndex2
									{
										OFFSET -5.213303 0.000000 0.000000
										CHANNELS 3 Xrotation Yrotation Zrotation
										JOINT RightHandIndex3
										{
											OFFSET -6.386528 0.000000 0.000000
											CHANNELS 3 Xrotation Yrotation Zrotation
											JOINT RightHandIndex4
											{
												OFFSET -5.189026 0.000000 0.000000
												CHANNELS 3 Xrotation Yrotation Zrotation
												End Site
												{
													OFFSET 0.236702 5.183624 0.001972
												}
											}
										}
									}
								}
							}
						}
					}
				}
			}
		}
	}
	JOINT LeftUpLeg
	{
		OFFSET 14.073000 -7.904099 -1.463000
		CHANNELS 3 Xrotation Yrotation Zrotation
		JOINT LeftLeg
		{
			OFFSET -0.109806 -34.073280 4.093200
			CHANNELS 3 Xrotation Yrotation Zrotation
			JOINT LeftFoot
			{
				OFFSET 0.109806 -29.899420 -6.319000
				CHANNELS 3 Xrotation Yrotation Zrotation
				JOINT LeftToeBase
				{
					OFFSET 1.551100 -14.988700 20.535801
					CHANNELS 3 Xrotation Yrotation Zrotation
					JOINT LeftToe_End
					{
						OFFSET 0.221200 0.570800 13.248301
						CHANNELS 3 Xrotation Yrotation Zrotation
						End Site
						{
							OFFSET 0.000000 13.262435 0.000000
						}
					}
				}
			}
		}
	}
	JOINT RightUpLeg
	{
		OFFSET -13.839300 -7.904099 -1.463000
		CHANNELS 3 Xrotation Yrotation Zrotation
		JOINT RightLeg
		{
			OFFSET 0.109694 -34.073219 4.093300
			CHANNELS 3 Xrotation Yrotation Zrotation
			JOINT RightFoot
			{
				OFFSET -0.109694 -29.899384 -6.319200
				CHANNELS 3 Xrotation Yrotation Zrotation
				JOINT RightToeBase
				{
					OFFSET -1.551100 -14.988700 20.535801
					CHANNELS 3 Xrotation Yrotation Zrotation
					JOINT RightToe_End
					{
						OFFSET -0.221200 0.570900 13.248299
						CHANNELS 3 Xrotation Yrotation Zrotation
						End Site
						{
							OFFSET 0.000000 13.262440 0.000000
						}
					}
				}
			}
		}
	}
}
MOTION
Frames: 9
Frame Time: 0.033333
-0.332066 87.830513 1.545794 4.137721 -3.077354 -0.396529 0.950585 1.954890 -0.588219 -0.093567 0.489836 0.007248 -0.095755 0.489455 0.002831 -8.689701 -1.485939 3.625359 -1.520097 -0.244968 -4.786649 0.000000 -0.000000 0.000000 2.065262 -10.473367 -6.704475 14.530973 -24.247674 -61.118069 0.000008 -20.286592 -0.000005 -14.875816 -4.046667 1.989822 0.823705 5.010658 -24.960723 0.183947 1.457939 -14.380574 0.000417 0.070147 -0.684475 -0.000002 -0.000001 -0.000002 2.724496 -8.639548 -6.587944 19.334126 30.808248 0.980682 4.743364 19.267014 13.938989 -0.000002 0.000002 0.000002 2.338101 13.296129 11.233839 6.943107 6.785391 63.001105 0.000000 18.096728 0.000024 5.806874 -1.182225 12.576812 -18.873834 4.526052 6.925610 13.085772 -27.648524 -15.384038 3.137501 1.759553 -20.962417 0.000001 -0.000001 -0.000002 5.499924 2.511703 6.941593 0.302910 -1.653772 20.757809 0.061527 -0.755325 9.313502 -0.000001 -0.000000 -0.000000 -5.975712 11.011496 5.207468 9.033433 3.758541 1.230549 -6.951837 1.024157 -4.860538 0.416998 0.002518 -0.468768 -0.000000 -0.000002 -0.000000 -8.268515 -9.066092 -6.636526 6.574244 5.260307 -1.475495 -3.033813 -0.486386 5.900182 0.271386 0.000000 0.000000 -0.000000 0.000000 -0.000000 
-0.156585 87.797165 1.627809 4.351206 -3.079330 -0.413385 0.937232 1.923000 -0.613493 -0.097159 0.482321 -0.015625 -0.095557 0.482111 -0.020577 -8.232298 -1.517012 3.663769 -0.535390 -0.387478 -4.736527 0.000000 -0.000000 -0.000000 2.068083 -10.501093 -6.665053 15.068149 -24.687244 -60.767339 -0.000006 -20.442729 0.000008 -14.606003 -4.033382 1.902880 0.834521 5.030268 -25.297223 0.191796 1.488233 -14.686133 0.000680 0.089362 -0.871960 -0.000000 0.000001 0.000001 2.669281 -8.599191 -6.454895 19.294668 30.651751 1.006015 4.710661 19.031183 13.927766 -0.000001 0.000001 0.000001 2.324689 13.272481 11.327304 6.759891 6.812175 63.141049 -0.000001 17.918702 0.000004 6.089836 -1.191704 12.675139 -18.719962 4.618754 6.525123 13.124836 -27.230467 -15.194956 3.117849 1.922787 -21.202044 -0.000003 0.000001 0.000000 5.401629 2.476900 6.961410 0.317761 -1.692425 21.266550 0.062545 -0.761461 9.389988 -0.000001 -0.000003 0.000001 -6.252607 10.901622 5.103057 9.329453 3.880606 1.220321 -7.191219 1.015775 -4.731623 0.416981 0.002520 -0.468787 0.000000 0.000001 0.000000 -8.514399 -9.058845 -6.770556 6.657993 5.264844 -1.496604 -3.038941 -0.503206 6.089840 0.267178 -0.000000 0.000001 0.000000 -0.000000 -0.000000 
0.026843 87.759430 1.703967 4.611586 -2.983498 -0.396838 0.894627 1.841938 -0.672996 -0.108563 0.460568 -0.048145 -0.106751 0.460052 -0.052903 -7.701428 -1.576619 3.703811 0.950503 -0.664688 -4.690278 -0.000000 -0.000000 -0.000000 2.066564 -10.559320 -6.588500 15.656020 -25.364913 -60.259037 0.000003 -20.744582 -0.000024 -13.950462 -4.082066 1.614898 0.845398 5.049850 -25.633717 0.199807 1.518471 -14.991717 0.001002 0.108566 -1.059450 -0.000002 -0.000003 -0.000001 2.614104 -8.558969 -6.321760 19.255432 30.495196 1.031146 4.677906 18.795362 13.916360 -0.000000 -0.000001 0.000001 2.277450 13.232566 11.615657 6.430857 7.080148 63.029710 -0.000001 17.637758 0.000003 6.622790 -1.288984 12.744370 -18.280009 4.865141 5.406804 13.268407 -26.167993 -14.641912 3.054096 2.599908 -22.135154 -0.000001 0.000001 0.000000 5.138841 2.297862 6.990208 0.342339 -1.754210 22.083465 0.063564 -0.767626 9.466449 -0.000002 0.000001 -0.000001 -6.590540 10.751577 4.951447 9.597945 3.951666 1.198589 -7.387537 1.000154 -4.572975 0.419062 0.002554 -0.471120 0.000000 0.000000 -0.000000 -8.802827 -9.065301 -6.970327 6.756643 5.208564 -1.516021 -3.069062 -0.528350 6.346123 0.225693 0.000004 0.000000 0.000000 -0.000001 0.000000 
0.229502 87.706642 1.768605 4.873363 -2.802055 -0.379882 0.870330 1.738395 -0.739800 -0.113201 0.433408 -0.083016 -0.111173 0.432599 -0.087502 -7.105200 -1.642497 3.782453 3.101416 -0.890503 -4.692539 -0.000000 -0.000000 0.000000 2.064035 -10.663194 -6.509168 16.115845 -26.095670 -59.692793 0.000005 -21.148499 -0.000007 -13.060044 -4.212893 1.177072 0.856318 5.069392 -25.970232 0.207994 1.548684 -15.297281 0.001390 0.127770 -1.246937 -0.000003 0.000001 -0.000002 2.558960 -8.518895 -6.188528 19.216457 30.338642 1.056146 4.645093 18.559554 13.904756 0.000003 0.000002 0.000001 2.204829 13.169332 12.060260 5.942324 7.505201 62.686780 0.000001 17.308842 -0.000006 7.217004 -1.574118 12.918381 -17.577231 5.206808 3.692804 13.488373 -24.573540 -13.804502 2.999835 3.711507 -23.642355 -0.000001 -0.000001 -0.000001 4.741740 2.000585 7.023393 0.375819 -1.834531 23.152630 0.064590 -0.773749 9.542964 -0.000004 -0.000000 -0.000001 -7.013256 10.571617 4.785893 9.980835 3.967884 1.174166 -7.621088 0.979081 -4.386047 0.429360 0.002682 -0.482735 -0.000000 -0.000000 -0.000000 -9.122987 -9.083272 -7.218962 6.929440 5.099450 -1.530695 -3.118813 -0.561583 6.665725 0.187243 -0.000002 0.000002 -0.000000 -0.000000 0.000000 
0.469628 87.627441 1.812736 5.059653 -2.570201 -0.417756 0.939689 1.630628 -0.754415 -0.090072 0.406007 -0.101411 -0.087899 0.405144 -0.105574 -6.310637 -1.734513 3.872287 5.723242 -1.209925 -4.672516 0.000000 0.000000 0.000000 2.058168 -10.779318 -6.455792 16.224747 -26.774248 -59.198534 -0.000008 -21.533517 -0.000014 -12.051155 -4.475178 0.676384 0.867310 5.088901 -26.306749 0.216328 1.578856 -15.602859 0.001842 0.146973 -1.434428 0.000001 -0.000000 0.000001 2.503867 -8.478927 -6.055159 19.177674 30.182036 1.080939 4.612232 18.323769 13.893001 0.000001 -0.000003 0.000001 2.104919 13.149428 12.582013 5.320154 7.997218 62.145945 -0.000000 16.988685 -0.000001 7.845948 -1.987239 13.210198 -16.632720 5.578692 1.505591 13.756212 -22.559032 -12.763182 3.021360 5.173000 -25.607187 -0.000003 -0.000002 -0.000004 4.240415 1.611086 7.055759 0.417374 -1.928739 24.418007 0.065629 -0.779900 9.619453 -0.000001 -0.000002 -0.000000 -7.529999 10.385004 4.664191 10.662325 3.931463 1.153909 -8.001097 0.955285 -4.172933 0.425220 0.002634 -0.478124 -0.000000 0.000000 -0.000000 -9.434147 -9.113483 -7.473228 7.230473 4.965727 -1.528657 -3.173394 -0.598260 7.006799 0.162671 -0.000008 0.028327 -0.000000 0.000000 -0.000000 
0.751023 87.528961 1.830853 5.114132 -2.312930 -0.526342 1.167119 1.533539 -0.710472 -0.027548 0.382061 -0.100693 -0.025307 0.381478 -0.104355 -5.271328 -1.869775 3.965400 8.596785 -1.727946 -4.615321 -0.000000 0.000000 -0.000000 2.052105 -10.882843 -6.436712 15.970451 -27.430204 -58.774707 0.000001 -21.858711 -0.000002 -10.968725 -4.852029 0.182795 0.878353 5.108376 -26.643275 0.224821 1.608963 -15.908469 0.002354 0.166180 -1.621909 0.000002 0.000001 -0.000001 2.448803 -8.439100 -5.921696 19.139116 30.025392 1.105575 4.579296 18.088002 13.881080 -0.000000 -0.000001 0.000000 1.976349 13.207182 13.170883 4.638866 8.548475 61.396625 -0.000003 16.690831 0.000025 8.437239 -2.368862 13.481892 -15.475452 5.917996 -1.028575 14.046343 -20.237384 -11.594793 3.180458 6.886314 -27.914124 -0.000003 -0.000000 0.000002 3.664875 1.155526 7.082564 0.465953 -2.032300 25.823651 0.066667 -0.786048 9.695927 0.000002 0.000000 0.000001 -8.061160 10.214950 4.595122 11.605199 3.843684 1.142331 -8.515339 0.930293 -3.936108 0.402665 0.002355 -0.452885 -0.000000 0.000001 -0.000000 -9.661788 -9.135460 -7.688806 7.636636 4.809458 -1.537442 -3.246414 -0.636747 7.341245 0.059596 -0.000281 0.157127 -0.000000 0.000000 0.000000 
1.069244 87.422531 1.826760 5.058409 -2.061745 -0.685326 1.546344 1.469472 -0.642436 0.062584 0.366630 -0.089822 0.064837 0.366308 -0.093597 -3.964246 -2.055003 4.093331 11.547816 -2.441666 -4.522718 0.000000 -0.000000 -0.000000 2.045038 -10.995271 -6.403847 15.517070 -28.132791 -58.401041 -0.000009 -22.181294 -0.000007 -9.787437 -5.313711 -0.302778 0.889457 5.127820 -26.979811 0.233484 1.639034 -16.214077 0.002932 0.185384 -1.809380 -0.000000 0.000002 -0.000001 2.393806 -8.399406 -5.788138 19.100786 29.868738 1.130052 4.546428 17.852455 13.866718 -0.000002 0.000002 0.000000 1.823575 13.339662 13.819430 3.909713 9.093643 60.496188 -0.000003 16.417838 0.000018 9.020228 -2.708316 13.663466 -14.148775 6.172523 -3.777700 14.337663 -17.723557 -10.370040 3.519111 8.738445 -30.446019 0.000001 0.000001 0.000001 3.044982 0.660247 7.100429 0.520200 -2.140716 27.313547 0.067727 -0.792187 9.772425 0.000003 -0.000001 -0.000004 -8.548585 10.046026 4.534571 12.670704 3.759103 1.172646 -9.096258 0.909562 -3.699889 0.390433 0.002211 -0.439039 -0.000000 0.000000 0.000000 -9.819125 -9.082953 -7.822215 8.132427 4.578956 -1.634433 -3.322208 -0.673197 7.629390 -0.073748 -0.001374 0.345147 -0.000000 -0.000000 0.000000 
1.419234 87.303787 1.803930 4.962751 -1.848985 -0.898288 2.035836 1.442558 -0.550893 0.165404 0.360547 -0.069232 0.167617 0.360603 -0.073130 -2.425162 -2.291460 4.272513 14.614861 -3.335789 -4.351770 -0.000001 0.000000 0.000000 2.040843 -11.132991 -6.331485 15.031489 -28.882203 -58.074913 -0.000013 -22.588294 -0.000003 -8.544642 -5.877524 -0.780594 0.900609 5.147227 -27.316355 0.242306 1.669046 -16.519711 0.003570 0.204587 -1.996869 0.000000 -0.000002 -0.000002 2.338825 -8.359855 -5.654450 19.062903 29.712364 1.153905 4.518540 17.616076 13.852582 0.000002 -0.000000 0.000000 1.657793 13.506724 14.510901 3.161145 9.586724 59.491986 -0.000000 16.217888 0.000008 9.571897 -3.014581 13.725289 -12.713022 6.307915 -6.604177 14.614095 -15.135163 -9.152383 4.046914 10.607507 -33.080607 -0.000000 -0.000001 0.000002 2.410434 0.151636 7.107677 0.578354 -2.249663 28.831707 0.068780 -0.798333 9.848896 -0.000001 0.000000 0.000002 -9.063074 9.858889 4.486758 13.865464 3.729582 1.264569 -9.747263 0.897447 -3.488507 0.399646 0.002324 -0.449402 0.000000 -0.000001 -0.000000 -10.033142 -8.902982 -7.855861 8.827190 4.265498 -1.851468 -3.471223 -0.716702 7.917584 -0.172894 -0.002847 0.497149 -0.000000 -0.000000 -0.000000 
1.783453 87.166412 1.755755 4.834583 -1.692272 -1.207165 2.685495 1.440622 -0.412727 0.294961 0.359345 -0.041132 0.297176 0.360099 -0.045343 -0.843447 -2.564922 4.464983 17.692997 -4.407562 -4.071038 0.000002 -0.000000 -0.000000 2.029021 -11.327684 -6.308796 14.673744 -29.547419 -57.652554 0.000004 -23.225505 -0.000009 -7.393946 -6.532088 -1.122941 0.911806 5.166595 -27.652909 0.251301 1.699049 -16.825302 0.004267 0.223790 -2.184352 -0.000003 0.000001 0.000002 2.283910 -8.320410 -5.520646 19.024496 29.556131 1.179538 4.491012 17.379655 13.838467 -0.000000 -0.000001 0.000000 1.484019 13.712537 15.220764 2.445050 10.026529 58.422542 -0.000004 16.113449 -0.000014 9.838529 -3.142538 13.524310 -11.244367 6.312999 -9.366956 14.863890 -12.592625 -7.998403 4.734723 12.374515 -35.687322 -0.000001 -0.000003 -0.000001 1.790967 -0.343853 7.104750 0.638220 -2.355084 30.322044 0.069851 -0.804454 9.925385 0.000004 -0.000001 0.000001 -9.668694 9.700859 4.542906 15.275283 3.710175 1.384596 -10.507495 0.892958 -3.298126 0.408713 0.002435 -0.459615 -0.000000 -0.000001 -0.000000 -10.326508 -8.648386 -7.803532 9.683068 3.921592 -2.070409 -3.588365 -0.763717 8.252927 -0.298758 -0.004300 0.610300 -0.000000 0.000000 0.000000 
